# xmcd
# 
# Track frame offsets:
#     150
#     13565
#     26571
#     41641
#     58305
#     75112
#     90001
#     104247
#     119622
#     135207
#     148485
#     163033
# 
# Disc length: 2441
# 
# Revision: 3
# Processed by: cddbd v1.5.2PL0 Copyright (c) Steve Scherf et al.
# Submitted via: fre:ac v1.0.31
# 
DISCID=9a09870c
DTITLE=Voxxclub - Geiles Himmelblau
DYEAR=2016
DGENRE=Pop-Folk
TTITLE0=Geiles Himmelblau
TTITLE1=Ab geht die Party
TTITLE2=Make that noise (Heast es)
TTITLE3=Frei will i sein
TTITLE4=Der Himmel war blau
TTITLE5=Ei, ei ,ei, die Goass is weg
TTITLE6=Mia san fucking mia
TTITLE7=I red wie mir der Schnabel
TTITLE8=Wieder hoam
TTITLE9=Sommer am See
TTITLE10=Wahnsinn
TTITLE11=Das letzte Lied
EXTD=
EXTT0=
EXTT1=
EXTT2=
EXTT3=
EXTT4=
EXTT5=
EXTT6=
EXTT7=
EXTT8=
EXTT9=
EXTT10=
EXTT11=
PLAYORDER=
